<svg xmlns="http://www.w3.org/2000/svg" xmlns:xlink="http://www.w3.org/1999/xlink" viewBox="0 0 212.6 92.94"><defs><style>.cls-1{isolation:isolate;}.cls-2{fill:#208d96;}.cls-3{fill:url(#Degradado_sin_nombre_166);}.cls-4{fill:url(#Degradado_sin_nombre_166-2);}.cls-5{fill:url(#linear-gradient);}.cls-6{fill:url(#linear-gradient-2);}.cls-7{font-size:10.45px;fill:#f2e8ae;font-family:LaborUnion-Regular, Labor Union;letter-spacing:0.07em;}.cls-8{letter-spacing:0.09em;}.cls-9{letter-spacing:0.06em;}.cls-10{letter-spacing:0.05em;}.cls-11{letter-spacing:0.04em;}.cls-12{letter-spacing:0.06em;}.cls-13{letter-spacing:0.04em;}.cls-14{letter-spacing:0.09em;}.cls-15{letter-spacing:0.05em;}.cls-16{opacity:0.2;mix-blend-mode:overlay;}.cls-17{fill:url(#New_Gradient_Swatch_3);}.cls-18{fill:url(#linear-gradient-3);}.cls-19{font-size:8px;font-family:Mont-SemiBold, Mont;font-weight:600;}.cls-19,.cls-43,.cls-44{fill:#fff;}.cls-20{letter-spacing:-0.01em;}.cls-21{letter-spacing:-0.06em;}.cls-22{letter-spacing:-0.02em;}.cls-23{letter-spacing:-0.02em;}.cls-24{letter-spacing:-0.03em;}.cls-25{letter-spacing:0em;}.cls-26{letter-spacing:-0.02em;}.cls-27{letter-spacing:0em;}.cls-28{font-size:7.5px;fill:#1d1d1b;font-family:Mont-Regular, Mont;}.cls-29{letter-spacing:-0.05em;}.cls-30{letter-spacing:0em;}.cls-31{letter-spacing:-0.01em;}.cls-32{letter-spacing:0em;}.cls-33{letter-spacing:-0.03em;}.cls-34{letter-spacing:-0.03em;}.cls-35{letter-spacing:-0.02em;}.cls-36{letter-spacing:-0.03em;}.cls-37{letter-spacing:-0.02em;}.cls-38{letter-spacing:0em;}.cls-39{letter-spacing:-0.02em;}.cls-40{letter-spacing:-0.03em;}.cls-41{letter-spacing:-0.07em;}.cls-42{letter-spacing:-0.03em;}.cls-43{fill-rule:evenodd;}</style><radialGradient id="Degradado_sin_nombre_166" cx="99.24" cy="8.22" r="1.83" gradientUnits="userSpaceOnUse"><stop offset="0" stop-color="#debe78"/><stop offset="0.15" stop-color="#e3c986"/><stop offset="0.45" stop-color="#ebda9c"/><stop offset="0.74" stop-color="#f0e4a9"/><stop offset="1" stop-color="#f2e8ae"/></radialGradient><radialGradient id="Degradado_sin_nombre_166-2" cx="95.13" cy="10.07" r="2.94" xlink:href="#Degradado_sin_nombre_166"/><linearGradient id="linear-gradient" x1="89.38" y1="23.66" x2="115.47" y2="23.66" gradientUnits="userSpaceOnUse"><stop offset="0.04" stop-color="#debe78"/><stop offset="0.37" stop-color="#f2e8ae"/><stop offset="0.54" stop-color="#ddc794"/><stop offset="0.8" stop-color="#f2e8ae"/></linearGradient><linearGradient id="linear-gradient-2" x1="97.4" y1="16.14" x2="123.22" y2="16.14" xlink:href="#linear-gradient"/><linearGradient id="New_Gradient_Swatch_3" x1="45.76" y1="42.5" x2="166.21" y2="42.5" gradientTransform="translate(58.98 146.69) rotate(-90)" gradientUnits="userSpaceOnUse"><stop offset="0.5" stop-color="#191a21"/><stop offset="0.5" stop-color="#fff"/></linearGradient><linearGradient id="linear-gradient-3" x1="0" y1="87.48" x2="212.6" y2="87.48" xlink:href="#linear-gradient"/></defs><g class="cls-1"><g id="Capa_2" data-name="Capa 2"><g id="Capa_1-2" data-name="Capa 1"><path class="cls-2" d="M212.6,1.68C210.72,1.59,210.65,0,208.66,0s-2,1.7-4.09,1.7-2-1.7-4.1-1.7-2,1.7-4.09,1.7-2-1.7-4.09-1.7-2,1.7-4.09,1.7-2-1.7-4.1-1.7-2,1.7-4.09,1.7S178,0,175.92,0s-2,1.7-4.09,1.7-2-1.7-4.09-1.7-2,1.7-4.09,1.7-2-1.7-4.09-1.7-2,1.7-4.09,1.7S153.42,0,151.38,0s-2,1.7-4.09,1.7-2-1.7-4.09-1.7-2,1.7-4.09,1.7S137.06,0,135,0s-2,1.7-4.09,1.7-2-1.7-4.09-1.7-2,1.7-4.1,1.7-2-1.7-4.09-1.7-2,1.7-4.09,1.7-2-1.7-4.1-1.7-2,1.7-4.09,1.7-2-1.7-4.09-1.7-2,1.7-4.1,1.7S96.13,0,94.08,0,92,1.7,90,1.7s-2-1.7-4.1-1.7-2,1.7-4.09,1.7S79.75,0,77.7,0s-2,1.7-4.09,1.7-2-1.7-4.1-1.7-2.05,1.7-4.09,1.7S63.37,0,61.32,0s-2,1.7-4.1,1.7S55.18,0,53.13,0,51.08,1.7,49,1.7,47,0,44.94,0s-2,1.7-4.1,1.7S38.8,0,36.75,0s-2,1.7-4.1,1.7S30.61,0,28.56,0s-2,1.7-4.1,1.7S22.41,0,20.36,0s-2.05,1.7-4.09,1.7-2-1.7-4.1-1.7-2.05,1.7-4.1,1.7S6,0,4,0,1.91,1.61,0,1.69V85.57H212.6Z"/><path class="cls-3" d="M101.07,8.22c-1.31.29-1.54.52-1.83,1.84-.29-1.32-.52-1.55-1.83-1.84,1.31-.28,1.54-.51,1.83-1.83C99.53,7.71,99.76,7.94,101.07,8.22Z"/><path class="cls-4" d="M98.07,10.07c-2.11.46-2.48.83-2.94,2.94-.46-2.11-.83-2.48-2.94-2.94,2.11-.46,2.48-.83,2.94-2.94C95.59,9.24,96,9.61,98.07,10.07Z"/><polygon class="cls-5" points="108.64 22.45 110.78 24.59 106.3 29.08 94.08 16.86 97.4 13.55 92.73 13.55 89.38 16.98 106.31 33.77 115.47 24.61 110.97 20.12 108.64 22.45"/><polygon class="cls-6" points="116.53 10.19 100.76 10.19 97.4 13.54 97.4 13.54 97.4 13.55 115.2 13.55 118.52 16.86 115.63 19.74 117.99 22.1 123.22 16.87 116.53 10.19"/><text class="cls-7" transform="translate(45.44 46.15)">G<tspan class="cls-8" x="8.67" y="0">L</tspan><tspan class="cls-9" x="15.49" y="0">A</tspan><tspan class="cls-10" x="23.02" y="0">M</tspan><tspan class="cls-11" x="32.65" y="0">O</tspan><tspan x="41.2" y="0">U</tspan><tspan class="cls-12" x="49.79" y="0">r b</tspan><tspan class="cls-13" x="69.48" y="0">o</tspan><tspan class="cls-14" x="78.03" y="0">u</tspan><tspan class="cls-9" x="86.82" y="0">t</tspan><tspan class="cls-15" x="93.77" y="0">i</tspan><tspan class="cls-11" x="97.26" y="0">q</tspan><tspan x="105.7" y="0">u</tspan><tspan class="cls-9" x="114.28" y="0">e</tspan></text><g class="cls-16"><path class="cls-17" d="M45.76,42.5a3.61,3.61,0,0,1,3.74-3.82,4.23,4.23,0,0,1,2.6.79c.39.23.46,0,.65.14s0,.26-.06.38l-.46.69c-.11.16-.22.29-.35.19s0-.27-.42-.58a2.9,2.9,0,0,0-2-.56,2.79,2.79,0,0,0,0,5.55,2.27,2.27,0,0,0,1.89-.86.47.47,0,0,0,.05-.25v-.74c0-.6-.28-.39-.28-.61s.12-.19.33-.19h1c.14,0,.3,0,.3.18s-.26,0-.26.55v1.18a.61.61,0,0,1,0,.23A3.15,3.15,0,0,1,49.5,46.3,3.62,3.62,0,0,1,45.76,42.5Z"/><path class="cls-17" d="M54.63,46c0-.28.4-.15.4-.64V39.66c0-.63-.38-.44-.38-.65s.13-.17.36-.17h1.17c.23,0,.39,0,.39.17s-.35.13-.35.6v5.25c0,.23.08.25.21.25h2.81c.42,0,.49-.27.7-.15s.05.26,0,.35l-.44.7a.26.26,0,0,1-.26.14H55C54.77,46.15,54.63,46.14,54.63,46Z"/><path class="cls-17" d="M60.93,46c0-.26.36-.16.52-.62l2-5.73c.13-.38-.14-.37-.14-.57s.09-.19.25-.19h1.53c.17,0,.27,0,.27.19s-.35.2-.2.57l2.23,5.78c.16.41.46.33.46.57s-.1.2-.39.2H66.18c-.24,0-.34,0-.34-.18s.36-.17.24-.53l-.19-.52c0-.15-.14-.17-.27-.17H63.09a.28.28,0,0,0-.28.15l-.1.36c-.16.61.16.36.16.71,0,.16-.16.18-.46.18H61.23C61.08,46.15,60.93,46.12,60.93,46Zm4.37-2.23c.13,0,.15-.12.11-.23l-1-2.89c0-.11-.13-.1-.16,0l-1,2.94c0,.12,0,.19.15.19Z"/><path class="cls-17" d="M69,46c0-.3.4-.13.4-.8V39.64c0-.56-.43-.34-.43-.65,0-.15.2-.15.3-.15h1.45c.11,0,.33,0,.33.17s-.4.14-.4.56v.1a.55.55,0,0,0,.1.33L73,42.65c.1.13.18.11.27,0l2.1-2.59a.52.52,0,0,0,.09-.32v-.2c0-.39-.33-.28-.33-.54s.12-.16.48-.16h1.16c.16,0,.32,0,.32.17s-.42.15-.43.67V45.1c0,.74.41.62.41.91s-.1.14-.41.14h-1.1c-.36,0-.45,0-.45-.18s.38-.13.38-.79V42c0-.12-.11-.09-.2,0l-2,2.36c-.13.15-.23.13-.33,0L70.8,42c-.11-.12-.17,0-.17.07l0,3.15c0,.6.4.49.4.78,0,.13-.17.13-.5.13H69.35C69.18,46.15,69,46.13,69,46Z"/><path class="cls-17" d="M82.22,38.68a3.83,3.83,0,1,1-3.81,3.86A3.68,3.68,0,0,1,82.22,38.68Zm-.09,6.54a2.72,2.72,0,0,0,.08-5.42,2.52,2.52,0,0,0-2.54,2.74A2.49,2.49,0,0,0,82.13,45.22Z"/><path class="cls-17" d="M87.52,43l0-3.34c0-.49-.33-.38-.33-.61s.13-.17.33-.17h1.21c.24,0,.35,0,.35.18s-.36.08-.36.62V43c0,1.19.53,2.29,1.93,2.29s1.88-1.11,1.88-2.25V39.67c0-.59-.32-.45-.32-.65s.14-.18.33-.18h1.13c.2,0,.33,0,.33.2s-.31.1-.31.63V43c0,2.07-1,3.34-3,3.34S87.53,45,87.52,43Z"/><path class="cls-17" d="M95.76,46c0-.23.39-.24.39-.67V39.8c0-.69-.4-.54-.4-.8s.15-.16.59-.16h3.17a2.36,2.36,0,0,1,2.61,2.38,2.41,2.41,0,0,1-1,1.83c-.15.09-.16.18-.11.3l.88,2.1c.12.31.46.25.46.54s-.17.16-.35.16h-1c-.42,0-.51,0-.51-.15,0-.3.41-.2.22-.65L100,43.58c-.08-.18-.15-.21-.43-.21h-2c-.09,0-.27,0-.27.38v1.6c0,.46.38.38.38.64,0,.11-.1.16-.36.16H96C95.94,46.15,95.76,46.15,95.76,46Zm3.89-3.67a1.16,1.16,0,0,0,1.25-1.11c0-.75-.39-1.28-1.39-1.28H97.64c-.19,0-.32.07-.32.32v1.82c0,.18.16.25.36.25Z"/><path class="cls-17" d="M107.65,46c0-.26.38-.11.38-.73V39.66c0-.52-.42-.4-.42-.63s.14-.19.42-.19h3.14a1.9,1.9,0,0,1,2.13,1.9,1.57,1.57,0,0,1-.54,1.27c-.06.06-.07.14,0,.18a1.86,1.86,0,0,1,1,1.78,2,2,0,0,1-2.09,2.18h-3.52C108,46.15,107.65,46.15,107.65,46Zm3.78-.82A1.09,1.09,0,0,0,112.59,44c0-.84-.68-1-1.29-1h-1.9c-.08,0-.18,0-.18.17v1.79c0,.16,0,.25.21.25Zm-.21-3.24a1,1,0,0,0,.92-1,.91.91,0,0,0-1-1H109.5c-.15,0-.25,0-.25.22l0,1.53c0,.15,0,.24.23.24Z"/><path class="cls-17" d="M119,38.68a3.83,3.83,0,1,1-3.8,3.86A3.67,3.67,0,0,1,119,38.68ZM119,45.22a2.72,2.72,0,1,0-2.47-2.68A2.5,2.5,0,0,0,119,45.22Z"/><path class="cls-17" d="M124.34,43l0-3.34c0-.49-.32-.38-.32-.61s.12-.17.32-.17h1.21c.24,0,.36,0,.36.18s-.37.08-.37.62V43c0,1.19.53,2.29,1.94,2.29s1.88-1.11,1.88-2.25V39.67c0-.59-.33-.45-.33-.65s.15-.18.34-.18h1.13c.19,0,.32,0,.32.2s-.3.1-.3.63V43c0,2.07-1,3.34-3,3.34S124.35,45,124.34,43Z"/><path class="cls-17" d="M134.5,46c0-.19.37-.2.37-.58l0-5.27c0-.19,0-.29-.29-.29h-1.35c-.61,0-.49.28-.69.28s-.19-.08-.19-.39v-.65c0-.18.08-.24.27-.24h5.59c.15,0,.25.06.25.22v.58c0,.4-.06.52-.2.52s-.11-.31-.52-.31h-1.34c-.18,0-.27.08-.27.28v5.29c0,.4.36.36.36.54s-.1.19-.25.19h-1.49C134.61,46.15,134.5,46.12,134.5,46Z"/><path class="cls-17" d="M139.74,46c0-.17.37-.2.37-.71V39.67c0-.54-.3-.49-.3-.68s.21-.15.33-.15h1.14c.08,0,.37,0,.37.15s-.38.13-.38.68v5.58c0,.56.39.53.39.76s-.3.14-.38.14H140.1C139.88,46.15,139.74,46.14,139.74,46Z"/><path class="cls-17" d="M143,42.44a3.66,3.66,0,1,1,7.32.1,3.8,3.8,0,0,1-.66,2.12c-.06.07-.09.12,0,.22l.81.93a.2.2,0,0,1-.1.34h-1.14c-.26,0-.39,0-.39-.12s.21-.14.08-.29-.16-.12-.38,0a3.26,3.26,0,0,1-1.88.51A3.66,3.66,0,0,1,143,42.44Zm4.94,2-.68-.91c-.14-.2-.09-.39.11-.39h1c.31,0,.41,0,.41.17s-.22.18-.1.34.38-.54.38-1.19a2.53,2.53,0,0,0-2.44-2.68,2.57,2.57,0,0,0-2.46,2.67,2.45,2.45,0,0,0,2.38,2.66C147.9,45.11,148.07,44.53,148,44.44Z"/><path class="cls-17" d="M152,43l0-3.34c0-.49-.33-.38-.33-.61s.13-.17.33-.17h1.21c.24,0,.36,0,.36.18s-.37.08-.37.62V43c0,1.19.53,2.29,1.93,2.29S157,44.14,157,43V39.67c0-.59-.33-.45-.33-.65s.15-.18.34-.18h1.12c.2,0,.33,0,.33.2s-.3.1-.3.63V43c0,2.07-1,3.34-3,3.34S152,45,152,43Z"/><path class="cls-17" d="M160.25,46c0-.29.46-.17.46-.67l0-5.63c0-.67-.41-.41-.41-.76,0-.18.35-.13.67-.13h5c.13,0,.26,0,.26.23v.78c0,.12,0,.37-.2.37s-.09-.35-.66-.35h-3.26c-.13,0-.2.06-.2.21v1.56c0,.23.05.29.24.29h2.13c.34,0,.34-.28.49-.28s.2.16.2.39v.85c0,.29-.07.38-.22.38s-.17-.32-.47-.32h-2.07c-.2,0-.3.09-.29.25v1.67c0,.24.11.25.31.25h3.22c.52,0,.33-.37.6-.37s.18.17.18.37v.81c0,.15-.05.22-.17.22h-5.39C160.56,46.15,160.25,46.18,160.25,46Z"/></g><rect class="cls-18" y="82.02" width="212.6" height="10.91"/><text class="cls-19" transform="translate(33.72 57.11)"><tspan class="cls-20">J</tspan><tspan class="cls-21" x="4.75" y="0">r</tspan><tspan x="7.41" y="0">. Chachama</tspan><tspan class="cls-22" x="57.14" y="0">y</tspan><tspan x="61.72" y="0">o 450 </tspan><tspan class="cls-23" x="84.66" y="0">(</tspan><tspan x="87.06" y="0">Segundo pis</tspan><tspan class="cls-24" x="137.11" y="0">o</tspan><tspan class="cls-25" x="142.08" y="0">)</tspan><tspan x="49.18" y="9.6">Cajama</tspan><tspan class="cls-26" x="81.89" y="9.6">r</tspan><tspan class="cls-27" x="84.92" y="9.6">ca</tspan></text><text class="cls-28" transform="translate(13.66 89.51)"><tspan class="cls-29">V</tspan><tspan x="4.72" y="0">e</tspan><tspan class="cls-30" x="9.46" y="0">n</tspan><tspan class="cls-31" x="14.24" y="0">t</tspan><tspan class="cls-32" x="17.15" y="0">a,</tspan><tspan class="cls-33" x="24.2" y="0"> </tspan><tspan x="25.96" y="0">Alquile</tspan><tspan class="cls-34" x="51.62" y="0">r</tspan><tspan class="cls-35" x="54.31" y="0"> </tspan><tspan class="cls-36" x="56.09" y="0">y</tspan><tspan x="60.29" y="0" xml:space="preserve"> Co</tspan><tspan class="cls-31" x="73.02" y="0">n</tspan><tspan class="cls-37" x="77.78" y="0">f</tspan><tspan x="80.56" y="0">ección de</tspan><tspan class="cls-34" x="118.17" y="0"> </tspan><tspan class="cls-29" x="119.92" y="0">V</tspan><tspan x="124.64" y="0">e</tspan><tspan class="cls-38" x="129.38" y="0">s</tspan><tspan x="133.19" y="0">tidos</tspan><tspan class="cls-39" x="152.06" y="0"> </tspan><tspan class="cls-36" x="153.85" y="0">y</tspan><tspan class="cls-40" x="158.05" y="0"> </tspan><tspan class="cls-41" x="159.76" y="0">T</tspan><tspan x="163.39" y="0">ernos</tspan></text><text class="cls-19" transform="translate(86.59 78.73)">906 <tspan class="cls-42" x="16.01" y="0">4</tspan><tspan x="20.13" y="0">11 815</tspan></text><path class="cls-43" d="M83.49,77.33c-.18-.2-.41-.44-.69-.41s-.45.28-.62.4a.2.2,0,0,1-.26,0,3.56,3.56,0,0,1-1.21-2,.22.22,0,0,1,.11-.28,1.15,1.15,0,0,0,.47-.4,1.2,1.2,0,0,0,.06-.65,1.58,1.58,0,0,0-.22-.8.63.63,0,0,0-.68-.11,1.45,1.45,0,0,0-.8.91,2,2,0,0,0-.06.35,3,3,0,0,0,.08.84,6.25,6.25,0,0,0,.16.62,5.63,5.63,0,0,0,1,1.81,5.18,5.18,0,0,0,.76.72,2,2,0,0,0,1,.5,1.35,1.35,0,0,0,1.18-.41.75.75,0,0,0,.16-.35C83.93,77.77,83.65,77.51,83.49,77.33Z"/><path class="cls-44" d="M28.82,51a2.3,2.3,0,0,0-2.3,2.31c0,1.27,2.3,3.74,2.3,3.74s2.3-2.47,2.3-3.74A2.3,2.3,0,0,0,28.82,51Zm0,3.11a.92.92,0,1,1,.91-.92A.92.92,0,0,1,28.82,54.07Z"/></g></g></g></svg>